<?xml version="1.0" encoding="UTF-8" standalone="no"?>
<!-- Created with Inkscape (http://www.inkscape.org/) -->

<svg
   width="275"
   height="275"
   viewBox="0 0 72.760413 72.760418"
   version="1.1"
   id="svg5"
   sodipodi:docname="spycamlogosvg.svg"
   inkscape:version="1.1 (c68e22c387, 2021-05-23)"
   xmlns:inkscape="http://www.inkscape.org/namespaces/inkscape"
   xmlns:sodipodi="http://sodipodi.sourceforge.net/DTD/sodipodi-0.dtd"
   xmlns:xlink="http://www.w3.org/1999/xlink"
   xmlns="http://www.w3.org/2000/svg"
   xmlns:svg="http://www.w3.org/2000/svg">
  <sodipodi:namedview
     id="namedview7"
     pagecolor="#505050"
     bordercolor="#eeeeee"
     borderopacity="1"
     inkscape:pageshadow="0"
     inkscape:pageopacity="0"
     inkscape:pagecheckerboard="0"
     inkscape:document-units="mm"
     showgrid="false"
     units="px"
     inkscape:zoom="2.096401"
     inkscape:cx="72.743716"
     inkscape:cy="143.3409"
     inkscape:window-width="1920"
     inkscape:window-height="1017"
     inkscape:window-x="1208"
     inkscape:window-y="-8"
     inkscape:window-maximized="1"
     inkscape:current-layer="layer1" />
  <defs
     id="defs2">
    <linearGradient
       inkscape:collect="always"
       id="linearGradient1955">
      <stop
         style="stop-color:#ffaaaa;stop-opacity:1"
         offset="0"
         id="stop1951" />
      <stop
         style="stop-color:#ff2a2a;stop-opacity:1"
         offset="1"
         id="stop1953" />
    </linearGradient>
    <linearGradient
       inkscape:collect="always"
       xlink:href="#linearGradient1955"
       id="linearGradient1957"
       x1="4.8644562"
       y1="13.157869"
       x2="69.284248"
       y2="61.117046"
       gradientUnits="userSpaceOnUse"
       gradientTransform="matrix(1.5625,0,0,1.5625,-20.463868,-20.463867)" />
  </defs>
  <g
     inkscape:label="Layer 1"
     inkscape:groupmode="layer"
     id="layer1">
    <path
       style="fill:#000000;stroke-width:1.05833"
       id="path1413"
       d="" />
    <path
       style="fill:#000000;stroke-width:1.05833"
       id="path1303"
       d="" />
    <path
       style="fill:#000000;stroke-width:1.05833"
       id="path1283"
       d="" />
    <path
       style="fill:url(#linearGradient1957);fill-opacity:1;stroke-width:0.532252"
       d="m 45.955989,60.919929 c 0,-1.922668 0.149406,-2.196982 1.19757,-2.198723 2.234261,-0.0039 4.382054,-1.939803 7.850741,-7.07692 1.902807,-2.818052 3.579404,-5.123935 3.725775,-5.124185 0.146375,-2.5e-4 0.925959,0.539772 1.732433,1.20005 l 1.466302,1.2005 -4.060293,5.996615 c -2.233163,3.29814 -4.643094,6.378476 -5.355398,6.845199 -0.712309,0.466718 -2.47906,0.962349 -3.926116,1.101388 l -2.631014,0.252807 z m -26.485933,0.466525 c -1.040467,-0.634376 -3.244848,-3.34765 -5.501294,-6.771295 l -3.765151,-5.712761 1.509392,-1.207874 c 0.830168,-0.66433 1.62915,-1.206102 1.77552,-1.203943 0.146375,0.0024 1.630369,2.152237 3.297779,4.777946 3.062157,4.822054 5.406651,6.916541 7.746482,6.920425 1.041999,0.0015 1.19757,0.278566 1.19757,2.131006 v 2.129012 l -2.262076,-0.0024 c -1.317895,-9.8e-4 -2.986739,-0.443735 -3.998222,-1.060441 z m 6.352468,-9.365001 C 24.691059,51.228946 9.6926859,29.399073 9.3307809,28.018006 c -0.212234,-0.809909 7.4869331,-6.95147 9.3795281,-7.481971 0.787262,-0.220672 8.85632,-0.401219 17.931244,-0.401219 14.521824,0 16.697739,0.108387 18.150482,0.904156 2.172118,1.189814 8.196068,6.236384 8.196068,6.866266 0,0.888719 -15.462188,23.324843 -16.646193,24.154153 -1.72926,1.21122 -18.780971,1.179693 -20.519386,-0.03794 z m 14.034569,-7.072797 c 10.301999,-4.679552 4.868866,-20.593588 -6.028913,-17.65912 -8.513612,2.292475 -9.513782,14.005033 -1.506446,17.641313 2.760426,1.253562 4.804218,1.258392 7.535359,0.0177 z M 4.7473029,21.508206 3.3072917,20.00516 7.3674599,16.344212 C 13.909947,10.445017 14.794822,10.054925 22.137642,9.8328726 l 6.25398,-0.189116 v 2.1850754 2.185075 l -4.923344,0.0051 c -6.082162,0.0064 -8.644589,1.080621 -13.7634241,5.769828 l -3.517543,3.222313 z M 63.254229,19.542587 C 58.278478,14.988045 55.84335,14.025351 49.282575,14.0191 L 43.826977,14.014 V 11.841567 9.6691436 l 6.520102,0.176463 c 7.860161,0.2127444 9.400985,0.8383684 15.208216,6.1750464 l 3.89783,3.581992 -1.502687,1.431602 -1.502687,1.431606 z"
       id="path1842" />
  </g>
</svg>
